<mxfile host="app.diagrams.net" agent="Mozilla/5.0 (X11; Ubuntu; Linux x86_64; rv:131.0) Gecko/20100101 Firefox/131.0" version="24.8.3">
  <diagram name="Page-1" id="SFFqxZoZLlMc1QDhKtVH">
    <mxGraphModel dx="1179" dy="691" grid="1" gridSize="10" guides="1" tooltips="1" connect="1" arrows="1" fold="1" page="1" pageScale="1" pageWidth="827" pageHeight="1169" math="0" shadow="0">
      <root>
        <mxCell id="0" />
        <mxCell id="1" parent="0" />
        <mxCell id="5pLzxD6deojl3qA_GsYt-1" value="" style="rounded=0;whiteSpace=wrap;html=1;strokeColor=#228B22;strokeWidth=2;" vertex="1" parent="1">
          <mxGeometry x="12" y="168" width="260" height="510" as="geometry" />
        </mxCell>
        <mxCell id="5pLzxD6deojl3qA_GsYt-2" value="&lt;font color=&quot;#228b22&quot; style=&quot;font-size: 20px;&quot;&gt;&lt;b style=&quot;font-size: 20px;&quot;&gt;&lt;font style=&quot;font-size: 20px;&quot;&gt;Application Layer&lt;/font&gt;&lt;/b&gt;&lt;/font&gt;" style="text;html=1;align=center;verticalAlign=middle;resizable=0;points=[];autosize=1;strokeColor=none;fillColor=none;" vertex="1" parent="1">
          <mxGeometry x="57" y="133" width="170" height="40" as="geometry" />
        </mxCell>
        <mxCell id="5pLzxD6deojl3qA_GsYt-3" value="" style="rounded=0;whiteSpace=wrap;html=1;strokeColor=#228B22;dashed=1;" vertex="1" parent="1">
          <mxGeometry x="32" y="355" width="220" height="105" as="geometry" />
        </mxCell>
        <mxCell id="5pLzxD6deojl3qA_GsYt-5" value="&lt;b&gt;&lt;font style=&quot;font-size: 18px;&quot; color=&quot;#228b22&quot;&gt;Create Trip&lt;/font&gt;&lt;/b&gt;" style="text;html=1;align=center;verticalAlign=middle;resizable=0;points=[];autosize=1;strokeColor=none;fillColor=none;" vertex="1" parent="1">
          <mxGeometry x="92" y="333" width="110" height="30" as="geometry" />
        </mxCell>
        <mxCell id="5pLzxD6deojl3qA_GsYt-6" value="&lt;div style=&quot;font-size: 16px;&quot;&gt;&lt;font style=&quot;font-size: 16px;&quot; color=&quot;#228b22&quot;&gt;Create Trip&lt;/font&gt;&lt;/div&gt;&lt;div style=&quot;font-size: 16px;&quot;&gt;&lt;font style=&quot;font-size: 16px;&quot; color=&quot;#228b22&quot;&gt;Page&lt;br style=&quot;font-size: 16px;&quot;&gt;&lt;/font&gt;&lt;/div&gt;" style="rounded=0;whiteSpace=wrap;html=1;strokeColor=#228B22;" vertex="1" parent="1">
          <mxGeometry x="42" y="362.5" width="90" height="90" as="geometry" />
        </mxCell>
        <mxCell id="5pLzxD6deojl3qA_GsYt-7" value="&lt;div style=&quot;font-size: 17px;&quot;&gt;&lt;font style=&quot;font-size: 16px;&quot; color=&quot;#228b22&quot;&gt;Route Creation Bloc&lt;/font&gt;&lt;/div&gt;" style="rounded=0;whiteSpace=wrap;html=1;strokeColor=#228B22;" vertex="1" parent="1">
          <mxGeometry x="152" y="362.5" width="90" height="90" as="geometry" />
        </mxCell>
        <mxCell id="5pLzxD6deojl3qA_GsYt-9" value="" style="rounded=0;whiteSpace=wrap;html=1;strokeColor=#228B22;dashed=1;" vertex="1" parent="1">
          <mxGeometry x="32" y="510" width="220" height="105" as="geometry" />
        </mxCell>
        <mxCell id="5pLzxD6deojl3qA_GsYt-10" value="&lt;font style=&quot;font-size: 18px;&quot; color=&quot;#228b22&quot;&gt;&lt;b&gt;Show Trips&lt;/b&gt;&lt;/font&gt;" style="text;html=1;align=center;verticalAlign=middle;resizable=0;points=[];autosize=1;strokeColor=none;fillColor=none;" vertex="1" parent="1">
          <mxGeometry x="87" y="486.5" width="110" height="30" as="geometry" />
        </mxCell>
        <mxCell id="5pLzxD6deojl3qA_GsYt-11" value="&lt;div style=&quot;font-size: 16px;&quot;&gt;&lt;font style=&quot;font-size: 16px;&quot; color=&quot;#228b22&quot;&gt;Show Trips&lt;/font&gt;&lt;/div&gt;&lt;div style=&quot;font-size: 16px;&quot;&gt;&lt;font style=&quot;font-size: 16px;&quot; color=&quot;#228b22&quot;&gt;Page&lt;br style=&quot;font-size: 16px;&quot;&gt;&lt;/font&gt;&lt;/div&gt;" style="rounded=0;whiteSpace=wrap;html=1;strokeColor=#228B22;" vertex="1" parent="1">
          <mxGeometry x="42" y="517.5" width="90" height="90" as="geometry" />
        </mxCell>
        <mxCell id="5pLzxD6deojl3qA_GsYt-12" value="&lt;div style=&quot;font-size: 16px;&quot;&gt;&lt;font style=&quot;font-size: 16px;&quot; color=&quot;#228b22&quot;&gt;Routes&lt;/font&gt;&lt;/div&gt;&lt;div style=&quot;font-size: 16px;&quot;&gt;&lt;font style=&quot;font-size: 16px;&quot; color=&quot;#228b22&quot;&gt;Cubit&lt;/font&gt;&lt;/div&gt;" style="rounded=0;whiteSpace=wrap;html=1;strokeColor=#228B22;" vertex="1" parent="1">
          <mxGeometry x="152" y="517.5" width="90" height="90" as="geometry" />
        </mxCell>
        <mxCell id="5pLzxD6deojl3qA_GsYt-13" value="" style="rounded=0;whiteSpace=wrap;html=1;strokeColor=#228B22;dashed=1;" vertex="1" parent="1">
          <mxGeometry x="32" y="208" width="220" height="105" as="geometry" />
        </mxCell>
        <mxCell id="5pLzxD6deojl3qA_GsYt-14" value="&lt;font style=&quot;font-size: 18px;&quot;&gt;&lt;b style=&quot;font-size: 18px;&quot;&gt;&lt;font style=&quot;font-size: 18px;&quot; color=&quot;#228b22&quot;&gt;Login&lt;/font&gt;&lt;/b&gt;&lt;/font&gt;" style="text;html=1;align=center;verticalAlign=middle;resizable=0;points=[];autosize=1;strokeColor=none;fillColor=none;" vertex="1" parent="1">
          <mxGeometry x="112" y="184.5" width="70" height="30" as="geometry" />
        </mxCell>
        <mxCell id="5pLzxD6deojl3qA_GsYt-18" value="&lt;div style=&quot;font-size: 14.4px;&quot;&gt;&lt;font style=&quot;font-size: 14.4px;&quot;&gt;Firebase&lt;/font&gt;&lt;/div&gt;&lt;div style=&quot;font-size: 14.4px;&quot;&gt;&lt;font style=&quot;font-size: 14.4px;&quot;&gt;Auth&lt;br&gt;&lt;/font&gt;&lt;/div&gt;" style="rounded=0;whiteSpace=wrap;html=1;fontColor=#8B0000;strokeColor=#8B0000;" vertex="1" parent="1">
          <mxGeometry x="12" y="30" width="90" height="90" as="geometry" />
        </mxCell>
        <mxCell id="5pLzxD6deojl3qA_GsYt-19" value="" style="rounded=0;whiteSpace=wrap;html=1;strokeColor=#3399FF;strokeWidth=2;" vertex="1" parent="1">
          <mxGeometry x="292" y="168" width="260" height="510" as="geometry" />
        </mxCell>
        <mxCell id="5pLzxD6deojl3qA_GsYt-20" value="&lt;font color=&quot;#3399ff&quot; style=&quot;font-size: 20px;&quot;&gt;&lt;b style=&quot;font-size: 20px;&quot;&gt;&lt;font style=&quot;font-size: 20px;&quot;&gt;Domain Layer&lt;/font&gt;&lt;/b&gt;&lt;/font&gt;" style="text;html=1;align=center;verticalAlign=middle;resizable=0;points=[];autosize=1;strokeColor=none;fillColor=none;" vertex="1" parent="1">
          <mxGeometry x="352" y="133" width="140" height="40" as="geometry" />
        </mxCell>
        <mxCell id="5pLzxD6deojl3qA_GsYt-21" value="&lt;font style=&quot;font-size: 23px;&quot; color=&quot;#3399ff&quot;&gt;&lt;b style=&quot;font-size: 23px;&quot;&gt;&lt;font style=&quot;font-size: 23px;&quot;&gt;Route Creation Repository&lt;/font&gt;&lt;/b&gt;&lt;/font&gt;" style="rounded=0;whiteSpace=wrap;html=1;strokeColor=#3399FF;" vertex="1" parent="1">
          <mxGeometry x="312" y="277.5" width="220" height="105" as="geometry" />
        </mxCell>
        <mxCell id="5pLzxD6deojl3qA_GsYt-25" value="&lt;font size=&quot;1&quot; color=&quot;#3399ff&quot;&gt;&lt;b&gt;&lt;font style=&quot;font-size: 23px;&quot;&gt;Route Persistence Repository&lt;/font&gt;&lt;/b&gt;&lt;/font&gt;" style="rounded=0;whiteSpace=wrap;html=1;strokeColor=#3399FF;" vertex="1" parent="1">
          <mxGeometry x="312" y="432.5" width="220" height="105" as="geometry" />
        </mxCell>
        <mxCell id="5pLzxD6deojl3qA_GsYt-31" value="" style="rounded=0;whiteSpace=wrap;html=1;strokeColor=#4B0082;strokeWidth=2;" vertex="1" parent="1">
          <mxGeometry x="582" y="168" width="260" height="510" as="geometry" />
        </mxCell>
        <mxCell id="5pLzxD6deojl3qA_GsYt-32" value="&lt;font color=&quot;#4b0082&quot; style=&quot;font-size: 20px;&quot;&gt;&lt;b style=&quot;font-size: 20px;&quot;&gt;&lt;font style=&quot;font-size: 20px;&quot;&gt;Data Layer&lt;/font&gt;&lt;/b&gt;&lt;/font&gt;" style="text;html=1;align=center;verticalAlign=middle;resizable=0;points=[];autosize=1;strokeColor=none;fillColor=none;" vertex="1" parent="1">
          <mxGeometry x="652" y="133" width="120" height="40" as="geometry" />
        </mxCell>
        <mxCell id="5pLzxD6deojl3qA_GsYt-33" value="&lt;font style=&quot;font-size: 23px;&quot; color=&quot;#4b0082&quot;&gt;Route Database&lt;/font&gt;" style="rounded=0;whiteSpace=wrap;html=1;strokeColor=#4B0082;" vertex="1" parent="1">
          <mxGeometry x="602" y="432.5" width="220" height="105" as="geometry" />
        </mxCell>
        <mxCell id="5pLzxD6deojl3qA_GsYt-34" value="&lt;div style=&quot;font-size: 23px;&quot;&gt;&lt;font style=&quot;font-size: 23px;&quot; color=&quot;#4b0082&quot;&gt;RouteItemEntries&lt;br style=&quot;font-size: 23px;&quot;&gt;&lt;/font&gt;&lt;/div&gt;" style="rounded=0;whiteSpace=wrap;html=1;strokeColor=#4B0082;" vertex="1" parent="1">
          <mxGeometry x="602" y="277.5" width="220" height="105" as="geometry" />
        </mxCell>
        <mxCell id="5pLzxD6deojl3qA_GsYt-35" value="&lt;div style=&quot;font-size: 16px;&quot;&gt;&lt;font style=&quot;font-size: 16px;&quot; color=&quot;#228b22&quot;&gt;Login Page&lt;/font&gt;&lt;/div&gt;" style="rounded=0;whiteSpace=wrap;html=1;strokeColor=#228B22;" vertex="1" parent="1">
          <mxGeometry x="42" y="215.5" width="200" height="90" as="geometry" />
        </mxCell>
        <mxCell id="5pLzxD6deojl3qA_GsYt-38" value="" style="shape=image;verticalLabelPosition=bottom;labelBackgroundColor=default;verticalAlign=top;aspect=fixed;imageAspect=0;image=https://firebase.google.com/static/downloads/brand-guidelines/SVG/logo-standard.svg;clipPath=inset(0% 78% 0% 0%);" vertex="1" parent="1">
          <mxGeometry x="84" y="98.5" width="32.6" height="40.5" as="geometry" />
        </mxCell>
        <mxCell id="5pLzxD6deojl3qA_GsYt-39" value="" style="endArrow=none;startArrow=classic;html=1;rounded=0;exitX=0.031;exitY=-0.006;exitDx=0;exitDy=0;exitPerimeter=0;entryX=0.39;entryY=0.994;entryDx=0;entryDy=0;entryPerimeter=0;strokeColor=#8B0000;startFill=1;endFill=0;fontStyle=0" edge="1" parent="1">
          <mxGeometry width="50" height="50" relative="1" as="geometry">
            <mxPoint x="57.55000000000005" y="215.50000000000003" as="sourcePoint" />
            <mxPoint x="56.450000000000024" y="120.00000000000004" as="targetPoint" />
          </mxGeometry>
        </mxCell>
        <mxCell id="5pLzxD6deojl3qA_GsYt-40" value="" style="endArrow=classic;startArrow=none;html=1;rounded=0;exitX=0.031;exitY=-0.006;exitDx=0;exitDy=0;exitPerimeter=0;entryX=0.39;entryY=0.994;entryDx=0;entryDy=0;entryPerimeter=0;strokeColor=#8B0000;startFill=0;endFill=1;curved=0;fontStyle=0;endSize=6;targetPerimeterSpacing=0;" edge="1" parent="1">
          <mxGeometry width="50" height="50" relative="1" as="geometry">
            <mxPoint x="46.10000000000004" y="215.50000000000003" as="sourcePoint" />
            <mxPoint x="45.000000000000014" y="120.00000000000006" as="targetPoint" />
          </mxGeometry>
        </mxCell>
        <mxCell id="5pLzxD6deojl3qA_GsYt-44" value="" style="shape=image;verticalLabelPosition=bottom;labelBackgroundColor=default;verticalAlign=top;aspect=fixed;imageAspect=0;image=data:image/png,iVBORw0KGgoAAAANSUhEUgAAAEgAAABICAMAAABiM0N1AAADAFBMVEUAAAABTooBV5sptvZUxfgptvZUxfgBVpoBV5sptvZGwPdUxfhUxfgBVpkBV5sYdqUptvZUxfg9ruMAMlkAOGQBK0sBMFMBPm4BPm8BR38BSYIBTIcBTooBTosBTowBUZEBUpIBUpMBU5QBVZcBVZgBVpgBVpoBV5oBV5sCO2cCQHACQ3YCSYADTYYDT4oDUIsWaJAXb5kZeKYafrAbg7Ybhroch7wptvZEv/dUxfgAAAAAAAAAAAAAAAAAAAAAAAAAAAAAAAAAAAAAAAAAAAAAAAAAAAAAAAAAAAAAAAAAAAAAAAAAAAAAAAAAAAAAAAAAAAAAAAAAAAAAAAAAAAAAAAAAAAAAAAAAAAAAAAAAAAAAAAAAAAAAAAAAAAAAAAAAAAAAAAAAAAAAAAAAAAAAAAAAAAAAAAAAAAAAAAAAAAAAAAAAAAAAAAAAAAAAAAAAAAAAAAAAAAAAAAAAAAAAAAAAAAAAAAAAAAAAAAAAAAAAAAAAAAAAAAAAAAAAAAAAAAAAAAAAAAAAAAAAAAAAAAAAAAAAAAAAAAAAAAAAAAAAAAAAAAAAAAAAAAAAAAAAAAAAAAAAAAAAAAAAAAAAAAAAAAAAAAAAAAAAAAAAAAAAAAAAAAAAAAAAAAAAAAAAAAAAAAAAAAAAAAAAAAAAAAAAAAAAAAAAAAAAAAAAAAAAAAAAAAAAAAAAAAAAAAAAAAAAAAAAAAAAAAAAAAAAAAAAAAAAAAAAAAAAAAAAAAAAAAAAAAAAAAAAAAAAAAAAAAAAAAAAAAAAAAAAAAAAAAAAAAAAAAAAAAAAAAAAAAAAAAAAAAAAAAAAAAAAAAAAAAAAAAAAAAAAAAAAAAAAAAAAAAAAAAAAAAAAAAAAAAAAAAAAAAAAAAAAAAAAAAAAAAAAAAAAAAAAAAAAAAAAAAAAAAAAAAAAAAAAAAAAAAAAAAAAAAAAAAAAAAAAAAAAAAAAAAAAAAAAAAAAAAAAAAAAAAAAAAAAAAAAAAAAAAAAAAAAAAAAAAAAAAAAAABv6FUKAAAAE3RSTlMAEBAQEFBQYGBgYGCAz8/Pz8/fGRDk+gAAActJREFUeF7t1ctOwzAQBVDnQatSKlDFR7Aq//8brBD7sgSpLVCnj9Ckedgz45mx170r5yo6cZRJYswtUjJYhFMuXmBlzNtPt9BDvKOHBEcNSY4WEh0lJDs6SOGoII2jgVSOAtI5MqR0REjrSJDaESC9w0MRDgvFOBwU5TBQnBOGIp0gFOuEoGgnAMU7NJTgkFCKQ0FJDgGlORhKdBCU6kAo2QEQ70wmXt+mqrpF6ba8M195fZv3fb9yd5TgbI/9Mnd7IlrHFE5/Pm6fncMmaseDsKR3fAhKEQ6AfGlw7l+HbghwIORKgzNbwbnFDoJGyXXg4GIHQ73kO0DCDgFdJeh4EuHALV9TLirkmGw4lXJoaMzojBLpULfmxHVMd1Xa4SHgtFLAYSHkXKSQ43+P/Nxhp/4IOdyOMvQtMPX86wS7LgxUH6B0tn/LXWBLDISkk/0tsqeAxEFAOtpdeXluAYmFPOlgN2XeDCUt8ZAjVfvvIjN5M5OkJECDZD9tluXl9XRKkqBOsutzXkwn/T+HkESoley6nj7MivENx5IMXaTN3DxO/T8gkhSQqav9EnZI0kDNCC1gBSUdVB9ESQcpJCUkS1pIlNSQKN0i5h8rvgogntOXKgAAAABJRU5ErkJggg==;" vertex="1" parent="1">
          <mxGeometry x="110" y="586.4" width="28.6" height="28.6" as="geometry" />
        </mxCell>
        <mxCell id="5pLzxD6deojl3qA_GsYt-45" value="" style="shape=image;verticalLabelPosition=bottom;labelBackgroundColor=default;verticalAlign=top;aspect=fixed;imageAspect=0;image=data:image/png,iVBORw0KGgoAAAANSUhEUgAAAEgAAABICAMAAABiM0N1AAADAFBMVEUAAAABTooBV5sptvZUxfgptvZUxfgBVpoBV5sptvZGwPdUxfhUxfgBVpkBV5sYdqUptvZUxfg9ruMAMlkAOGQBK0sBMFMBPm4BPm8BR38BSYIBTIcBTooBTosBTowBUZEBUpIBUpMBU5QBVZcBVZgBVpgBVpoBV5oBV5sCO2cCQHACQ3YCSYADTYYDT4oDUIsWaJAXb5kZeKYafrAbg7Ybhroch7wptvZEv/dUxfgAAAAAAAAAAAAAAAAAAAAAAAAAAAAAAAAAAAAAAAAAAAAAAAAAAAAAAAAAAAAAAAAAAAAAAAAAAAAAAAAAAAAAAAAAAAAAAAAAAAAAAAAAAAAAAAAAAAAAAAAAAAAAAAAAAAAAAAAAAAAAAAAAAAAAAAAAAAAAAAAAAAAAAAAAAAAAAAAAAAAAAAAAAAAAAAAAAAAAAAAAAAAAAAAAAAAAAAAAAAAAAAAAAAAAAAAAAAAAAAAAAAAAAAAAAAAAAAAAAAAAAAAAAAAAAAAAAAAAAAAAAAAAAAAAAAAAAAAAAAAAAAAAAAAAAAAAAAAAAAAAAAAAAAAAAAAAAAAAAAAAAAAAAAAAAAAAAAAAAAAAAAAAAAAAAAAAAAAAAAAAAAAAAAAAAAAAAAAAAAAAAAAAAAAAAAAAAAAAAAAAAAAAAAAAAAAAAAAAAAAAAAAAAAAAAAAAAAAAAAAAAAAAAAAAAAAAAAAAAAAAAAAAAAAAAAAAAAAAAAAAAAAAAAAAAAAAAAAAAAAAAAAAAAAAAAAAAAAAAAAAAAAAAAAAAAAAAAAAAAAAAAAAAAAAAAAAAAAAAAAAAAAAAAAAAAAAAAAAAAAAAAAAAAAAAAAAAAAAAAAAAAAAAAAAAAAAAAAAAAAAAAAAAAAAAAAAAAAAAAAAAAAAAAAAAAAAAAAAAAAAAAAAAAAAAAAAAAAAAAAAAAAAAAAAAAAAAAAAAAAAAAAAAAAAAAAAAAAAAAAAAAAAAAAAAAAAAAAAAAAAAAAAAAAAAAAAAAAAAAAAAAAAAAAAAABv6FUKAAAAE3RSTlMAEBAQEFBQYGBgYGCAz8/Pz8/fGRDk+gAAActJREFUeF7t1ctOwzAQBVDnQatSKlDFR7Aq//8brBD7sgSpLVCnj9Ckedgz45mx170r5yo6cZRJYswtUjJYhFMuXmBlzNtPt9BDvKOHBEcNSY4WEh0lJDs6SOGoII2jgVSOAtI5MqR0REjrSJDaESC9w0MRDgvFOBwU5TBQnBOGIp0gFOuEoGgnAMU7NJTgkFCKQ0FJDgGlORhKdBCU6kAo2QEQ70wmXt+mqrpF6ba8M195fZv3fb9yd5TgbI/9Mnd7IlrHFE5/Pm6fncMmaseDsKR3fAhKEQ6AfGlw7l+HbghwIORKgzNbwbnFDoJGyXXg4GIHQ73kO0DCDgFdJeh4EuHALV9TLirkmGw4lXJoaMzojBLpULfmxHVMd1Xa4SHgtFLAYSHkXKSQ43+P/Nxhp/4IOdyOMvQtMPX86wS7LgxUH6B0tn/LXWBLDISkk/0tsqeAxEFAOtpdeXluAYmFPOlgN2XeDCUt8ZAjVfvvIjN5M5OkJECDZD9tluXl9XRKkqBOsutzXkwn/T+HkESoley6nj7MivENx5IMXaTN3DxO/T8gkhSQqav9EnZI0kDNCC1gBSUdVB9ESQcpJCUkS1pIlNSQKN0i5h8rvgogntOXKgAAAABJRU5ErkJggg==;" vertex="1" parent="1">
          <mxGeometry x="109" y="430.4" width="28.6" height="28.6" as="geometry" />
        </mxCell>
        <mxCell id="5pLzxD6deojl3qA_GsYt-46" value="" style="shape=image;verticalLabelPosition=bottom;labelBackgroundColor=default;verticalAlign=top;aspect=fixed;imageAspect=0;image=data:image/png,iVBORw0KGgoAAAANSUhEUgAAAEgAAABICAMAAABiM0N1AAADAFBMVEUAAAABTooBV5sptvZUxfgptvZUxfgBVpoBV5sptvZGwPdUxfhUxfgBVpkBV5sYdqUptvZUxfg9ruMAMlkAOGQBK0sBMFMBPm4BPm8BR38BSYIBTIcBTooBTosBTowBUZEBUpIBUpMBU5QBVZcBVZgBVpgBVpoBV5oBV5sCO2cCQHACQ3YCSYADTYYDT4oDUIsWaJAXb5kZeKYafrAbg7Ybhroch7wptvZEv/dUxfgAAAAAAAAAAAAAAAAAAAAAAAAAAAAAAAAAAAAAAAAAAAAAAAAAAAAAAAAAAAAAAAAAAAAAAAAAAAAAAAAAAAAAAAAAAAAAAAAAAAAAAAAAAAAAAAAAAAAAAAAAAAAAAAAAAAAAAAAAAAAAAAAAAAAAAAAAAAAAAAAAAAAAAAAAAAAAAAAAAAAAAAAAAAAAAAAAAAAAAAAAAAAAAAAAAAAAAAAAAAAAAAAAAAAAAAAAAAAAAAAAAAAAAAAAAAAAAAAAAAAAAAAAAAAAAAAAAAAAAAAAAAAAAAAAAAAAAAAAAAAAAAAAAAAAAAAAAAAAAAAAAAAAAAAAAAAAAAAAAAAAAAAAAAAAAAAAAAAAAAAAAAAAAAAAAAAAAAAAAAAAAAAAAAAAAAAAAAAAAAAAAAAAAAAAAAAAAAAAAAAAAAAAAAAAAAAAAAAAAAAAAAAAAAAAAAAAAAAAAAAAAAAAAAAAAAAAAAAAAAAAAAAAAAAAAAAAAAAAAAAAAAAAAAAAAAAAAAAAAAAAAAAAAAAAAAAAAAAAAAAAAAAAAAAAAAAAAAAAAAAAAAAAAAAAAAAAAAAAAAAAAAAAAAAAAAAAAAAAAAAAAAAAAAAAAAAAAAAAAAAAAAAAAAAAAAAAAAAAAAAAAAAAAAAAAAAAAAAAAAAAAAAAAAAAAAAAAAAAAAAAAAAAAAAAAAAAAAAAAAAAAAAAAAAAAAAAAAAAAAAAAAAAAAAAAAAAAAAAAAAAAAAAAAAAAAAAAAAAAAAAAAAAAAAAAAAAAAAAAAAAAAAAAAAAAABv6FUKAAAAE3RSTlMAEBAQEFBQYGBgYGCAz8/Pz8/fGRDk+gAAActJREFUeF7t1ctOwzAQBVDnQatSKlDFR7Aq//8brBD7sgSpLVCnj9Ckedgz45mx170r5yo6cZRJYswtUjJYhFMuXmBlzNtPt9BDvKOHBEcNSY4WEh0lJDs6SOGoII2jgVSOAtI5MqR0REjrSJDaESC9w0MRDgvFOBwU5TBQnBOGIp0gFOuEoGgnAMU7NJTgkFCKQ0FJDgGlORhKdBCU6kAo2QEQ70wmXt+mqrpF6ba8M195fZv3fb9yd5TgbI/9Mnd7IlrHFE5/Pm6fncMmaseDsKR3fAhKEQ6AfGlw7l+HbghwIORKgzNbwbnFDoJGyXXg4GIHQ73kO0DCDgFdJeh4EuHALV9TLirkmGw4lXJoaMzojBLpULfmxHVMd1Xa4SHgtFLAYSHkXKSQ43+P/Nxhp/4IOdyOMvQtMPX86wS7LgxUH6B0tn/LXWBLDISkk/0tsqeAxEFAOtpdeXluAYmFPOlgN2XeDCUt8ZAjVfvvIjN5M5OkJECDZD9tluXl9XRKkqBOsutzXkwn/T+HkESoley6nj7MivENx5IMXaTN3DxO/T8gkhSQqav9EnZI0kDNCC1gBSUdVB9ESQcpJCUkS1pIlNSQKN0i5h8rvgogntOXKgAAAABJRU5ErkJggg==;" vertex="1" parent="1">
          <mxGeometry x="217" y="284.4" width="28.6" height="28.6" as="geometry" />
        </mxCell>
        <mxCell id="5pLzxD6deojl3qA_GsYt-48" value="" style="shape=image;verticalLabelPosition=bottom;labelBackgroundColor=default;verticalAlign=top;aspect=fixed;imageAspect=0;image=https://codeclusive.io/blog/introduction-to-flutter-bloc/images/bloc.png;clipPath=inset(13.06% 57.33% 13.69% 9%);" vertex="1" parent="1">
          <mxGeometry x="223.46" y="586.4" width="28.54" height="32.5" as="geometry" />
        </mxCell>
        <mxCell id="5pLzxD6deojl3qA_GsYt-49" value="" style="shape=image;verticalLabelPosition=bottom;labelBackgroundColor=default;verticalAlign=top;aspect=fixed;imageAspect=0;image=https://codeclusive.io/blog/introduction-to-flutter-bloc/images/bloc.png;clipPath=inset(13.06% 57.33% 13.69% 9%);" vertex="1" parent="1">
          <mxGeometry x="223.46" y="427.4" width="28.54" height="32.5" as="geometry" />
        </mxCell>
        <mxCell id="5pLzxD6deojl3qA_GsYt-51" value="" style="endArrow=classic;html=1;rounded=0;entryX=-0.004;entryY=0.403;entryDx=0;entryDy=0;entryPerimeter=0;strokeColor=#228B22;" edge="1" parent="1" target="5pLzxD6deojl3qA_GsYt-7">
          <mxGeometry width="50" height="50" relative="1" as="geometry">
            <mxPoint x="132" y="399" as="sourcePoint" />
            <mxPoint x="182" y="349" as="targetPoint" />
          </mxGeometry>
        </mxCell>
        <mxCell id="5pLzxD6deojl3qA_GsYt-52" value="" style="endArrow=none;html=1;rounded=0;entryX=-0.004;entryY=0.403;entryDx=0;entryDy=0;entryPerimeter=0;strokeColor=#228B22;startArrow=classic;startFill=1;endFill=0;" edge="1" parent="1">
          <mxGeometry width="50" height="50" relative="1" as="geometry">
            <mxPoint x="132" y="416.42" as="sourcePoint" />
            <mxPoint x="152" y="416.42" as="targetPoint" />
          </mxGeometry>
        </mxCell>
        <mxCell id="5pLzxD6deojl3qA_GsYt-56" value="" style="endArrow=classic;html=1;rounded=0;entryX=-0.004;entryY=0.403;entryDx=0;entryDy=0;entryPerimeter=0;strokeColor=#228B22;" edge="1" parent="1">
          <mxGeometry width="50" height="50" relative="1" as="geometry">
            <mxPoint x="132" y="555" as="sourcePoint" />
            <mxPoint x="152" y="555" as="targetPoint" />
          </mxGeometry>
        </mxCell>
        <mxCell id="5pLzxD6deojl3qA_GsYt-57" value="" style="endArrow=none;html=1;rounded=0;entryX=-0.004;entryY=0.403;entryDx=0;entryDy=0;entryPerimeter=0;strokeColor=#228B22;startArrow=classic;startFill=1;endFill=0;" edge="1" parent="1">
          <mxGeometry width="50" height="50" relative="1" as="geometry">
            <mxPoint x="132" y="572.4200000000001" as="sourcePoint" />
            <mxPoint x="152" y="572.4200000000001" as="targetPoint" />
          </mxGeometry>
        </mxCell>
        <mxCell id="5pLzxD6deojl3qA_GsYt-58" value="" style="endArrow=classic;html=1;rounded=0;entryX=0.002;entryY=0.203;entryDx=0;entryDy=0;entryPerimeter=0;exitX=0.997;exitY=0.647;exitDx=0;exitDy=0;exitPerimeter=0;strokeColor=#3399FF;" edge="1" parent="1" source="5pLzxD6deojl3qA_GsYt-7" target="5pLzxD6deojl3qA_GsYt-25">
          <mxGeometry width="50" height="50" relative="1" as="geometry">
            <mxPoint x="280" y="440" as="sourcePoint" />
            <mxPoint x="330" y="390" as="targetPoint" />
          </mxGeometry>
        </mxCell>
        <mxCell id="5pLzxD6deojl3qA_GsYt-59" value="" style="endArrow=classic;html=1;rounded=0;entryX=0.002;entryY=0.813;entryDx=0;entryDy=0;exitX=1.01;exitY=0.302;exitDx=0;exitDy=0;exitPerimeter=0;entryPerimeter=0;strokeColor=#3399FF;" edge="1" parent="1">
          <mxGeometry width="50" height="50" relative="1" as="geometry">
            <mxPoint x="242.9000000000001" y="395.68000000000006" as="sourcePoint" />
            <mxPoint x="312.44000000000005" y="368.865" as="targetPoint" />
          </mxGeometry>
        </mxCell>
        <mxCell id="5pLzxD6deojl3qA_GsYt-60" value="" style="endArrow=none;html=1;rounded=0;entryX=0.002;entryY=0.813;entryDx=0;entryDy=0;exitX=1.01;exitY=0.302;exitDx=0;exitDy=0;exitPerimeter=0;entryPerimeter=0;strokeColor=#3399FF;startArrow=classic;startFill=1;endFill=0;" edge="1" parent="1">
          <mxGeometry width="50" height="50" relative="1" as="geometry">
            <mxPoint x="241.9000000000001" y="378.68000000000006" as="sourcePoint" />
            <mxPoint x="311.44000000000005" y="351.865" as="targetPoint" />
          </mxGeometry>
        </mxCell>
        <mxCell id="5pLzxD6deojl3qA_GsYt-61" value="" style="endArrow=classic;html=1;rounded=0;exitX=0.999;exitY=0.399;exitDx=0;exitDy=0;exitPerimeter=0;strokeColor=#4B0082;" edge="1" parent="1">
          <mxGeometry width="50" height="50" relative="1" as="geometry">
            <mxPoint x="531.78" y="319.395" as="sourcePoint" />
            <mxPoint x="602" y="319" as="targetPoint" />
          </mxGeometry>
        </mxCell>
        <mxCell id="5pLzxD6deojl3qA_GsYt-62" value="" style="endArrow=none;html=1;rounded=0;exitX=0.999;exitY=0.399;exitDx=0;exitDy=0;exitPerimeter=0;strokeColor=#4B0082;startArrow=classic;startFill=1;endFill=0;" edge="1" parent="1">
          <mxGeometry width="50" height="50" relative="1" as="geometry">
            <mxPoint x="531.78" y="343.395" as="sourcePoint" />
            <mxPoint x="602" y="343" as="targetPoint" />
          </mxGeometry>
        </mxCell>
        <mxCell id="5pLzxD6deojl3qA_GsYt-63" value="" style="endArrow=classic;html=1;rounded=0;exitX=0.999;exitY=0.399;exitDx=0;exitDy=0;exitPerimeter=0;strokeColor=#4B0082;" edge="1" parent="1">
          <mxGeometry width="50" height="50" relative="1" as="geometry">
            <mxPoint x="531.78" y="472.395" as="sourcePoint" />
            <mxPoint x="602" y="472" as="targetPoint" />
          </mxGeometry>
        </mxCell>
        <mxCell id="5pLzxD6deojl3qA_GsYt-64" value="" style="endArrow=none;html=1;rounded=0;exitX=0.999;exitY=0.399;exitDx=0;exitDy=0;exitPerimeter=0;strokeColor=#4B0082;startArrow=classic;startFill=1;endFill=0;" edge="1" parent="1">
          <mxGeometry width="50" height="50" relative="1" as="geometry">
            <mxPoint x="531.78" y="496.395" as="sourcePoint" />
            <mxPoint x="602" y="496" as="targetPoint" />
          </mxGeometry>
        </mxCell>
        <mxCell id="5pLzxD6deojl3qA_GsYt-65" value="" style="shape=image;verticalLabelPosition=bottom;labelBackgroundColor=default;verticalAlign=top;aspect=fixed;imageAspect=0;image=data:image/png,iVBORw0KGgoAAAANSUhEUgAAAgAAAAIACAYAAAD0eNT6AAAABHNCSVQICAgIfAhkiAAAAAlwSFlzAAAOxAAADsQBlSsOGwAAABl0RVh0U29mdHdhcmUAd3d3Lmlua3NjYXBlLm9yZ5vuPBoAACAASURBVHic7N15fJ1lnffxz+8+Sbpv2JRSCqNl2FpEsKIPy6iDHWdQcC8OM6AsY6FZKAW07Nyi0IVSliyFMiLKw+MIzowO6IxYUEbAtaJgy6JE2VraBOi+JOfcv+ePk2ApvdMkTXKd5ft+vfI6SZqe86W05/qe61z3dYGIiIiIiIiIiIiIiIiIiIiIiIiIiIiIiIiIiIiIiIiIiIiIiIiIiIiIiIiIiIiIiIiIiIiIiIiIiIiIiIiIiIjsykIHEClnZ3/NRw3dztgoYaxlGJtzRkTGKGBk4gyzzs9xhtH1OVR6561BhcEogK7vARlgdMpDjgGilF9LgA0pv7YRyAEdBps7H2+jv/l7HcBmh40G24HN7myKjG3A5sTZlDG2eI71ScT67UNZf8c5tql3f2Ii0l9UAET6Qf0tPqSjkvGVxngSqnNOdWSMdxhvxnh3qh3GRTDOYSx/+cgEjh5aDlgPrDdYn8Dr5rxmEW3utBm0JU6bOeuSiNZMjjZzXm0433aEDi5S7FQARLpx5td96PCtTM4Y+7kzyY39gEkO+xnsD0wkf5v2ilsGxgbgZeCVrlvz/G3S+fXW4bx051m2PWRIkUKmAiBlrf4Wr/Yq/sqdAyzhQDfebnCgOwcCB2DsGzqj7AVnLcYLwAtmvEDC8x7xQuK8kMvw/LJzrS10RJFQVACk5M1u9nHAlAxMcZgCTDOY6vDX5N8Tl/K1HVgNrAJWGrQYtGShpW08z997quUC5xMZMCoAUhIuvt5HbBvGoW4casZU4FCMw3AOBoaGzidFaTvGH3CeNufpBJ4y55mOSp5edq5tDR1OZG+pAEhROfPrPnTYNqZl4EicdwLTHA4FDkR/n2VwOPA8xjMkrHTjSXOeiBJWanGiFBM9YUrBqmnyA8x5FxHvdOddBkcCBwMVobOJ7EYW51k3njTjdwk8UZHldw3n20uhg4nsjgqAFIS6Bp+UREyPYLob03HeQ36FvUixW4+xEmeFwwpzVjTV2crQoURUAGTQ1TT5SHPe58ZxZrzXnOkO+4XOJTKIVgMrcH7pxqPAr5prbXPoUFJeVABkwNU1+CQyHO/OCRjTSTgGoyp0LpECksN5hogVBo94wqNNtazCzEMHk9KlAiD9rv5Wn5pk+YAbHzD4AJrKF+k1gzVuPGzwcOI83FxrT4XOJKVFBUD2Wm2jTyPigzgfAN4P2jxHZACsBR52eDiT4ScN59mq0IGkuKkASK/VNvrbLOJET5iBcRJwQOhMImVoLfC/Zixvz3DfsnNtTehAUlxUAGSPZt7jmYltHJdz/t7gw8B00k+UE5HBl+D8mogH3PlhazU/0y6GsicqALJbs27z4RVZPmTOyRgfQ+/jixQP5zWMBx3uz1bwvWXnWtoxz1LGVADkDXNu8wM7snzM4GM4H9BKfZGSsMPgYTf+y53/aq61F0MHksKgAlDm6m/xyW582o2ZwHHo74RIqVtlzr3m3NVwvj0XOoyEoyf7MnTeUt+/IstnNOiLlL1VwDdzGf7vrbPt5dBhZHDpib9MzF3iwzoqOdmNzwEnAZnQmUSkYCTAzwy+uXUY37rjHNsUOpAMPBWAEhbHHq2r5jhzzgD+CRgZOpOIFLztGPc53DWhlf+OY8uGDiQDQwWgBJ231N+eyfEF4PPA/qHziEjRegm4syLH7TfPsRdCh5H+pQJQIuLYo1f34cQkwyycT6Ijc0Wk/yRuPBQlLBv/Kv+pWYHSoAJQ5Obc5PtmKzgX+AIwOXQeESl5LwC35zIsu3W2rQsdRvpOBaBI1Tb6IUAt+YF/WOA4IlJ+dgD35DIsunW2/T50GOk9FYAiU9PkJ5gzD/go+v8nIoXhUTcWNtdwv44wLh4aQIpA52r+T5lzJXBk6DwiIil+C1zTVMt3VQQKnwpAAesc+D9qTgy8O3QeEZGeMOf3ScT1rdXcrUOJCpcKQCFyt7pGTnXjKmBq6DgiIn1hzu+Baxrr+I5mBAqPCkCBqbnZj7OIRcDxobOIiPQL51dmfKmx3n4SOor8hQpAgahp8sMt4cvAzNBZREQGgsNyz3DR0hp7InQWUQEIbu4S36e9kvnAOWh/fhEpfVmc25MKLl9aY6+HDlPOVABCcbeaBs4w43pgQug4IiKD7DUzLm2s5XatDwhDBSCA2Tf5oVFEE8aHQmcREQnJ4adJQs2tc7SZ0GBTARhEcewVreO5COcaoCp0HhGRAtGBs6RjCFcuO9c6QocpFyoAg6T+Fj8ogTsxTgidRUSkQP0iyfH5pRfYM6GDlIModICS5251DT4nMZ7U4C8i0q33RRl+U9votbjrBeoA0x/wADp7oY8aNoI7cD4TOouISJH5r8osn79prq0PHaRUqQAMkLoGP8zh39FOfiIiffWswWca6+3J0EFKkd4CGAB1Df5Zh1+jwV9EZG8c4vBYXYNrg7QBoALQz+oafI7D/wNGhM4iIlICRjp8u67B49BBSo3eAugnM+/xzIRXuBmoDZ1FRKQkGQ3Vr3JBHFsSOkopUAHoB3HsVW378C2HT4XOIiJS4u7pGMLp2i9g7+ktgL008x7PtO7DXRr8RUQGxalVO/i3OPaK0EGKnQrAXohjjyas4ZvAqaGziIiUC4dPte7DHXHsGsP2gv7w9kLrPtyO8U+hc4iIlKEzWvehOXSIYqYC0Ed1Df4l4OzQOUREyti5tbf4BaFDFCstAuyD2kb/OxL+G8iEziIiUuZy7pzcPMf+J3SQYqMC0Eudh/r8ChgXOouIiADwai7He26da38OHaSY6C2AXohjjxLjDjT4i4gUkrdlMnxdBwj1jgpAL6zbhxqc94fOISIib/HBukbODR2imKgt9VBto/8VCU8Co0JnERGR3droGY5orrUXQwcpBtpIoadyfAUN/iIihWy0dXANcFboIMVAMwA9UNvoh5BjJSpMIiKFLpc405ZeYM+EDlLotAagJ3J8GQ3+IiLFIGPGFaFDFAPNAOxB/S0+OXGeR2VJRKRY5CziwMZ6Wx06SCHToLYH7vwT+nMSESkmmSTHaaFDFDoNbHvgcHroDCIi0jtmeu7eE70F0I3OxX9aSCIiUoQ8x8HNF9ofQ+coVJoB6IYnHBc6g4iI9I1lODZ0hkKmAtAd532hI4iISJ/pObwbKgDdMOc9oTOIiEifHRM6QCFTAeiOMSl0BBER6TM9h3dDBaB7+4QOICIifabn8G7oKoAUc5f4sPaIraFziIhI320Zw7A7z7LtoXMUIs0ApMhWkITOICIie+ftz+u5PI1mALpRe5NvBkaEziEiIn2yuekC0ymuKTQD0L3XQgcQEZE+cl4NHaGQqQB0TwdJiIgUK9NzeHdUALrj/DJ0BBER6bNfhA5QyFQAuuH6yyMiUrxMz+HdUQHoRlTBY6EziIhIH2X4WegIhUwFoBuN9fYn4Nehc4iISO8Y/Lypzp4PnaOQqQDs2V2hA4iISO8keu7eIxWAPch18G9AR+gcIiLSY+3ZLPeEDlHoVAD24NYv2jqHb4bOISIiPfb1ZRdbW+gQha4idIBiUGlck004A6gKnUVERLrVnoMFoUMUA80A9MDNc+wFN+4InUNERPbo9lvn2p9DhygGKgA9VAkxaFtJEZEC1pbLck3oEMVCBaCHbr7A1gJzQ+cQEZEUTv2tX7R1oWMUC50G2Eu1N/p3gY+HziEiIm9yX9Nc+1joEMVEMwC9ZBXUGKwJnUNERN7wUoXxhdAhio0KQC811tvqXMKngB2hs4iIlD1je+R8uvNtWukFFYA+WHqR/dyNWaFziIiUPae24ULTya19oALQR80X2DeBhaFziIiULeerTXNNl2j3kRYB7qXam3wxzkWhc4iIlBXnlqYLbU7oGMVMBWBvuVvtTSwFzg0dRUSkTNzRdAH/gpmHDlLMtBXw3jLz6thrWkdjoHUBIiIDyaB5/EbqNfjvPc0A9KPaG3wexnz05yoi0t/cnGsaL7I4dJBSoYGqn9Uu8c8DtwOVobOIiJSIrDs1zRfZ7aGDlBIVgAFQu9j/joj/B4wPnUVEpMi1RcZpDXNteeggpUYFYIDU3+KTPcu9Dv8ndBYRkWJkxoosfEan+w0M7QMwQBrOt5esgg8Ct4TOIiJShJaN38BxGvwHjmYABkHdDf5ZN5qBfUJnEREpcG1uzG6ea98JHaTUqQAMkjk3+b5ZZxmOTqsSEdm9/7EOzmmcZ6tDBykHKgCDyd3qbuIL7twAjAwdR0SkQGw0uLDxQvta6CDlRGsABpOZN861ZdbBocBdoeOIiBSA+ysyvFOD/+DTDEBAdTf6ie40AYeFziIiMqiM5wzqG+faf4eOUq40AxBQ41x7qAreDVwDbA2dR0RkEGwBrt6ygSM0+IelGYACcd4S3z8DV+GcA2RC5xER6WcJxt3WwSVa5FcYVAAKTM2NfrglfBmYGTqLiEh/cGe5Oxct/aI9ETqL/IUKQIGqu95PTCJig78JnUVEpC8MHs4ZVy+90B4OnUXeSgWgwNUs9hPMmAecHDqLiEgPPQpc3XSRPRg6iKRTASgS9Uv8bxLnSuDvQmcREdkNB37o8JXmi+yx0GFkz1QAikz9Df6uxKjB+RwwNHQeESl77cD33Lm++WL7Vegw0nMqACnqb/EhwOiG8601dJbdmXOT75vLMdudOoy3hc4jImVnA/CNKMv1DfPspdBhdmf2jT6lbX+ev/dUy4XOUohUAFLMnu/joioesywfKuRLVi6+3kdsz3CGO+cB7wqdR0RKm8PjkXNr+yj+77JzrWD3L6m9wQ/BeLB6IwfFsbWHzlOIVABSdBaA14Bnc8aJt15oL4fOtCezF/v0KGIWzj8DI0LnEZGSsR24L4pY1jDXlocOsyd1i/0wNx4EJlVvYogKwO6pAKTYqQAA/NHhxOaL7MWgoXpo9nwfl6nkc26cA7wzdB4RKVq/M+drFRnuummurQ8dpidmX+9HRhE/AiYAqACkUwFIsUsBAFidOB9berGtCBaqD2qX+DScM4DPAxND5xGRgvcaxneShGXF9nxXf6PPSBLuBcZ2fU8FIJ3OAui5SZHxk9ol/vHQQXqj6UJb2XSRXVK9iQOAU4B7yU/niYh02Y5zT5JwcvUm9m260M4ttsG/bomfkyT8gJ0Gf+meZgBSzJ7v46LKN80AdMnhXN70RVs46KH6yazYh1eM4ENmzAQ+hdYLiJSj7cByN+7NVPLdhvNtY+hAfeJudYu52o2rd/fL1Zs1A5BGBSBFNwWgy79WRZx/44W2bdBCDQCVAZGysgP4UdEP+p3mLvF92hO+QTc7paoApFMBSNGDAgCwKud89tYv2u8HJdQAq7/FR3sHf58kfMyMk0D7C4iUgFfN+X5i3Lc9xw/vmGebQgfqDzWL/RiDbwPv6O7nVADSqQCk6GEBANjscF7zxXb3gIcaRDPv8cz4Fzgq45zi+dmBqaEziUiPtWDcHyXct2M0Dy871zpCB+o37lZ3A+c7LAKq9vTjKgDpVABS9KIAdLljW44LSqVd7+r8RX5w1vh7Mz4M/C0wMnQmEXnDZuAhjAcyOR645Uv2h9CBBkLNIp9oxtcwPtLT36MCkE4FIEUfCgDAanfOa/6i3TcgoQpE1+xA5Mwg4hScY9EVJSKDbRXGfVHCcobw04bzbUfoQAOp7gaf6U4zML43v08FIJ0KQIo+FoAu91ZFnHfjhdbX319Uzl7oo0ZEvC+JmGHODIejUSEQ6W8twHIzlrc7P152sbWFDjQYahb5RMvQjPPJvvx+FYB0KgAp9rIAALyIUdN0kd3fb6GKxKzFPr4C3m/wQfIf01AhEOmNHLAS4yck/IQO/rfpMns1dKhBlb+870w3bgDG9fVuVADSqQCk6IcCAIDDcou4oOlCW9kfuYpRTZOPZBtHmXM8xgnAsegKA5GdbcJ4AnjEEx4dkuHRcplB3J26Jf4eT7gZOG5v70sFIJ0KQIr+KgCdOjCWdnRw1bJLbEM/3WfRimOPXhnB1AiOJeJ95ryH/CxBRehsIoOgA1gJ/Br4BRE/q97IU3FsSeBcwc260ferzBED/0I/zRqqAKRTAUjRzwWgy6sGX1l7II06n/rNZt3mlZVbOMSd6QbTgek4x9CDy3xEClgOeAZYYbAigRVDIlYU+wZi/W3WbV5ZtYkah2uA0f153yoA6VQAUgxQAQDAYAXOxY1ftJ8MxP2XilmxD68YyTSDdwFHkj/Z8F3sxfuBIgPoNeB3GE/iPOnwuyERv9dg3w13q1vCp9xZCBw0EA+hApBOBSDF7Pk+LqoYmAKwk0cNrmr8oj00wI9TUuoX+uTEONLhSDOmAocDhwKjAkeT8rAJeNrgKYdVZjyRjXji1gvt5dDBikn99T7DYYHnZ/wGTPUWFYA0KgApBqkAdHnUE65snmc/HqTHK0k1N/gB5hxmCYclMNUiDsU5BNg/dDYpSi9jPIvztDlPmfEUCU83zLOXQgcrZvXX+4wErgOOGYzHUwFIpwKQYpALQJdHDa7QWwP9K469au0YJldkmeLGFHemYEwxZ4rnFx8ODZ1RgsjivOBGizktdN7mIlpsGM8019rm0AFLSf31PiMxrsV572A+rgpAOhWAFIEKQJcfEnF900X2YKDHLyuz5/s4KpmSSZhCxCR39tupIByEzhcvVttxVncN8GaswVhtTku2gpZ9N/BCHFs2dMhSNvMez1S/wMfN+RLwvhAZVADSqQCkCFwAujxrRnNlxDItJAqn/hYfndvG/lHEvsDkxNg3StjfLf81sC8wERgTNGj5WA+8AqwDXjJnrRsvubE2cl5OEtZuh5dK9VyOYnD2Qh81PMNp7lxIfn1OMCoA6VQAUhRIAeiyDvh6LkODFhoVrlm3eWXVeqpzEeOjiGp3JkQJ4x3GmzE+Md5mzhhzxroxFt74KNe3ILaTH8zXm7PerfNzeM2dNoO2JKItctaSobXdaGM4bSV1sl2Jqbve3+FwLjCLArlaRwUgnQpAigIrAF3aMb4X5VjcMM9+GTqM9I8zYx86fDhjo4ixORiRccbkYFjGGZ4YYyNnqBvDzRibJAwzGIZRiXWeyOiMcqiIoJLOUxodRuG72VjJyJB2nbWxgYS3bkZjZC2/8h1gcwIdBlms83vOZpwOjK1mbHdnvTlbPWKbJWzIGVszsC1nbCDHZjM2bN3K+jtj2773f3pSCGYv9umRMwc4jQLb0EsFIJ0KQIoCLQBvMFiBsWxrjm9pqlNEBtsFN/rYbI5TE+c8yx8AVpBUANIVVFOTnvP8Tnm3DYu4uXax3xc5yxou5kHMPHQ2ESlNcezRqyM4MYHPdWT5DDBMryKLlwpA8RuKMzOBmbWLedau929lctxx8yX2QuhgIlIazlvi+2dynN6af3//HaHzSP9QASgthzhcnc1wee0i/4FH/BvDuE/XM4tIb82e7+MyFXzCndPI8SF0pHfJUQHoTvFOplcAH7OEj7GF7bWLfLnDvdud/9R6ARFJMyv24VXD+ajD54APu3cexlW8z4XSDRWA0jcUONng5GHGbV1lgK38R3OsmQGRcjd3iQ/bkWOGwUycTzsMD51JBocKQHl5owwwgqa6RX6fG9+trOCBm+ba+tDhRGRwzFrs4ytznITxyfYsJ1n57kVR1lQAypUz0uE0nNM6OsjVLvKf49yXZFi+9GJbETqeiPSv2fN9SibDKQmcbAkfwKgMnUnCUgEQgAxwPMbxUQK1i/xPwI/cuD8zhAcazrcdoQOKSO+cGfvQUSM4IUk4BeMTwIGONn+Rv1ABkN15BzDLnFnJdjbVLvIH3PiRRfy46SJ7NnQ4Edm9+sU+NZfjRDM+DHwocYZrxJc0KgCyJ6OAT5vzaXJQu8hfAX5qsDyb44FbL7U/B84nUrbqFvokjOMdZgAnJQkHmAZ86SEVAOmticBMh5mZDNQu8haMR815xJwfNMyzl0IHFClVc671fXOVvL9zwJ/hMCV0JileKgCyt6bgTHE4ww2vXeSrgJ+Z81gCP2/+Ek9re2KR3otjj1qHcrhnOM6c44Bjs4GP1pXSogIg/cmAacA0N/7FgNrr2eiL/JeR82gSscKzPLL0Uns9cE6RglMT+0iGcpQZx2Oc0ArHAm9TfZaBogIgA220wQw3ZpiDZcjVLvIngUcdfpkYv5m4hafj2LKhg4oMllm3eeWQ15maizgaeJ/B8cBU8lfkiAwKFQAZbBngKOAog9qMQ+twOmoX+R8wVpizIklYkd3Ob5bFtjV0WJG9Fcde1TqUgz1iujnTMaazgXcnkU7Sk7BUALqjqbfBUglMxZnqcIYZVA4jW7fQn3Z43I3HoxyPt1fy+2UXW1vosCJpzrveJ2QS3un5gns0ztGtxqFA5o2pfD2vSIFQAZBCVeFwBHCEOWd4BJU5qF3or5vR4s4qYKU7q9xZufQS/qTFhjJYZs/3cWZMiyKmujPNnalmHEHCRNhpsx29xJcCpgIgxWacO9OB6QBm+Y/aRaxnoT8FrHR42oynEue5imH8WTsZSl+cGfvQ4cN4hxkH4RyOcxjGEZ23owG8s3Lq2nspRioAUirGkl81fawBeP7w8mTbm2YNWoAWs/xHNkvL0kutJWRoCWv2fB8HTMlkmOLOFMjfmjEF+Csg88aUve1yK1LkVACkHLxp1sA9/xFFULvQ1wMtOH9yeCmCl5KIl0l4MXFemriD1XFs7WHjS1/U3+JDslvYvyLD/jnnwMjZ3439cQ7AeAfOlF1fyYNezUv5UAGQcjcWeDfGu438+izrPDElY9A6DGoX+itmvOzOyxgv4rzsxstRQitGa1LB2iFG240X2raw/ynlYVbsw4cNZXxiTEyM8TjVBpPd2B+Y7M5kg/2TbUyIIkg8/6Ldd30Fr4FeypwKgMieTXRnIjC9azrY/C8DimWhHahd6JuBdQbrHNqAVmAdzjqPaIuc9Tljg8GGyNiQy7J+6SWsL9fFi3Hs0dohjAHGVcAYhzFujMEY6zDeYF+cajOq3RmPsS9QDYx4Y9MI3+mm6//NIP93iBQrFQCR/jMSGPmW/dmtszAAUdeA1fUWxCJggW+ksxg4bHTynwMbge3ANoytODtwNltEhydstIicO+uBJElYD+AV7LAsb9k/IVfJxkwHuZ2/VzEi/3V2y5s3n6lwKrLGqF3vI2OMyDlVABUVjMs5UQRjEqiIYFTiVBmMcBhqMIz8SXRDHMYYjCH/MbrzdkwrjIo67zvZ5bF2XkXvb/qGiPQXFQCR0PLvQ492OCD/5W7stBDNfafbTtHOI2nEW0S5t34/2bbL7+3+LvIFpjNcknROq/Pm2zflt12+FpGCsrt/5yIiIlLiVABERETKkAqAiIhIGdIagO6U5dpsEREpB5oBEBERKUMqACIiImVIBUBERKQMqQCIiIiUIRUAERGRMqQCICIiUoZUAERERMqQCoCIiEgZUgEQEREpQyoAIiIiZUhbAXdHWwGLiEiJ0gyAiIhIGVIBEBERKUMqACIiImVIBUBERKQMqQCIiIiUIRUAERGRMqQCICIiUoZUAERERMqQCoCIiEgZUgEQEREpQyoAIiIiZUhnAXRHZwGIiEiJ0gyAiIhIGVIBEBERKUMqACIiImVIBSDFth1sC51BRET2SjaOrT10iEKlApDizti2A9tD5xARkT5y1oeOUMhUALr3XOgAIiLSR8YfQkcoZCoA3ftt6AAiItI37vwudIZCpgLQHeMnoSOIiEjfRBEPhc5QyFQAutGR8H0gFzqHiIj02vaKHfwodIhCpgLQjWWX2xqDB0PnEBGRXrv/pti0CLAbKgB7kCQ0hs4gIiK9E8EtoTMUOgsdoOC5W+18nsSZFjqKiIj0yM+aLrfjQocodJoB2BMz94RLQ8cQEZGeiYx5oTMUAxWAHmi+wu4Dfhg6h4iIdM+NbzdcZj8NnaMYqAD0kFVwNvBq6BwiIpJqtUFt6BDFQgWghxrn2WqcL4TOISIiu+UG/9J0memFWg+pAPRC0xX2nzh3hc4hIiK7MBoaL7f/Dh2jmKgA9NK2SmoNVoTOISIib/jfLe1a+NdbKgC9dMc822TGSY4OmRARCc5YmUR8ovMEV+kFFYA+aLjMWjMJJwFrQ2cRESljL1dEfGTppfZ66CDFSAWgjxqutOcwPg5sDp1FRKQMvUaOv7/5EnshdJBipQKwF5ous1+Y87dAa+gsIiLlwmBNAn/bdJWtDJ2lmGkr4H5Qd50f5gkPAAeEziIiUuJaIufDDVfac6GDFDvNAPSDxsvsacvyf4AnQ2cRESlVZqzIZTlWg3//UAHoJ42xre7IcqI72oJSRKT//cA6OPHW2NaFDlIqVAD60bLY2ibkOBFnIeCh84iIlADHWVid5ZSG2DaGDlNKtAZggNR+1T8OfAMYEzqLiEiRetWd05uvtP8JHaQUqQAMoNrr/BBL+HeHI0JnEREpJg6PR86nG6+0P4XOUqr0FsAAarrMnk2yHGvQjN4SEBHpiRzOwsxojtXgP7A0AzBIar7qJxh8Hfjr0FlERArUc1HEWQ2XmRZTDwLNAAyS5ivskY4s7+pcIJiEziMiUkASYFlHliM1+A8ezQAEUP8Vn5EYy4B3hM4iIhLY0w7nNF9hj4UOUm40AxBAw5W2vDrLYeZcAGwKnUdEJIDN5nw5Gs1RGvzD0AxAYHWxT/IKFgCno/8fIlL6EuDuCuOLN19uOlE1IA04BaLmGj/GjJuBY0NnEREZIL9MjDlLr7Cfhw4iKgAFJY49aq3gDOAqnCmh84iI9AtnlUXEjZfzHcx0SXSBUAEoQHHsUVsFn3a4DtdlgyJSpIwWS1i49jC+du+plgsdR95MBaCAzbrNKyvWcppFXKkiICJF5E/mLBifcEccWzZ0GNk9FYAiEMdetS7DWQaXAn8VOo+IyG45zzpc23oYd+sVf+FTAUjjboX2XlUce7Sugo/inG8wI3QeEZFOj5px89pD+I9CGvjj2KP4arzQnssLhQpAuvpukQAAIABJREFUitnzfVyUZV7TlXZJ6Cy7M/sanx4Zc4B/BCpD5xGRstMOfA/nhqar7Behw+xq5j2emfAMt1fnOC+OrT10nkKkApCiswC8BtzQdKVdHDpPmlnX+n5VCec61AP7hM4jIiWvFbgjytHYENtLocPszsx7PLPvM9zh8LnqHENUAHZPBSDFTgUAN25tvpyaQp5Gqol9pEWcinEOcFzoPCJSUhx42JyvbU74zp2xbQ8dKE3nK/9vAP8MoAKQTgUgxc4FAMDg9vE5aophRevsr/ihEZxF/mNC6DwiUpwM1jh803P8a3NsfwydZ08uvt5HbNvGtzBO6fqeCkA6FYAUuxYAAIwfVWY59abY1geK1Ssz7/HMxGf42wRmAZ8EKkJnEpGCl3P4cWQsa6/mu8vOtY7QgXqiLvZJZPgvh+k7f18FIJ0KQIrdFoC8lQanNF5pfxr0UHuhPvbJSYZ/dviswdGh84hIQXHglw7fJse3mmN7JXSg3ph9rR8ZJdwHHLjrr6kApFMBSDF7vo+LOnZbAADWGXyq8Sp7dFBD9ZPzYn97RYaPuzMTOD50HhEJZpU590YRd99ypf0hdJi+qP2yfxLjLmDE7n69OlEBSKMCkGIPBQAga861451r4tiSQQvWz+pjn+rGqW58FjgsdB4RGXCrzLk3F/GtpVfaM6HD9FUce0WbcYUbV9LN0fYqAOlUAFL0oAB0uZ8Kzmy6zF4d8FADrCb2oyLjExgnO7wb/f0QKQUJ8Csz7rMc/9kQ26rQgfbWnNgPzBrfwvZ8xZMKQDo9wafoRQEAeNHgtGJ9S2B36q/z6lyWk8w4GecfgFGhM4lIj20FHjK4j4T7G2NbHTpQf+mc8v8aMK4nP68CkE4FIEUvCwBADmjqSLh0WWxbBypXCGfGPnRUhhMS5xTyVxMcEDqTiLzF88AP3bk/M44HGs63HaED9adZC3xMZTuLgC/Qi7FLBSCdCkCKPhSALs8RcXbTFfa//R6qELhb/Vc4MoEPGZzo8AFgZOhYImVoA/CwGQ+5s7zpKlsZOtBAqfuyn+TGMmByb3+vCkA6FYAUe1EAIP+e278OG8aFi79oW/ozV6GZeY9nxj/NUZExw50ZBicAQ0PnEilB24Df4DwSRSzfMYGHi+Ua/b66IPaxHRELye9l0icqAOlUAFLsZQHo8qLDFc1X2Tf7JVQRmBX78ErjeDNOxPmgG9PRYUUifbED+DXwY3ce2ur8rJC34O1PcezRuojTDRYB++7NfakApFMBSNFPBaDLjw3mNF5lT/bT/RWNWbd5ZWYtR2aMExyOx3k/e/kPWqREvQL82pwVFvHIphyPlMuAv7P6r/p7PcfNbvyf/rg/FYB0KgAp+rkAAGSBO6IKrmi4zFr78X6LTl3skzCOd+ME8tt2vhfNEkh5yQHPAI84PGqwoulKVhXygWMD7byv+v4ZZz7O6fTj2KQCkE4FIMUAFIAur5lxzfgcTcVwsNBgOHuhjxreznR3jjI42vNbFR+Ozi6Q0tABrAIeBx6P4PFcwuPNsW0OnKsgzF3iw9q3cD7O5QzA5cYqAOlUAFLMnu/jovYBKQBdWsxYuPYwvnbvqZYbwMcpSrNu88rKtRziMN0SppNfS3A0MDx0NpFutAN/BFYYrEicFUNGs+LGC21b6GCFJo69qi3iTHeupA+r+3uq2lUA0qgApBiEAtDlKTcWtB7G3SoC3Ytjr2iNOBR4pzlT3TgcZypwMHoLQQZXO/AMzlNmPOXGKjeebD2UZ/XvuHuzbvPKirWcZs7VwJSBfjwVgHQqACkGsQB0WeXGQhWB3otjr1gLB5oxzWAqzhSMacBRpBwQItJDXa/oV1p+Gn9lzmipGMvvS22jnYG208B/FXDQYD2uCkA6FYAUAQpAlyfc+fIE+G4xHzJUCOLYo7YMf+UJUxymWP5JZ4qR/5oebiUqJe9VoMWhxfIfzyXQYhlami7nhXJemNcf4tirWiNOx7kCeMdgP74KQDoVgBQBC0CXFmBZpXPbTbGtD5ijZM2NfZ8OmOIRU3AO6pw5OID8VseTgdGBI0r/WA+87PCCOS9itLjznEFLJbTo39fAmLXAx1Tt4EyHiwi4fbgKQDoVgBQFUAC6bMS5kwqWNF1hz4cOU05qYh9JhgMyOfZPjP0dDsSZZBGTcSYD+wET0L+jUBJgHbAaeLlzcF+dGC9GCS8Bq9vhhVI7m6PQnf8VPziXow7jXyiARbsqAOn0xJWigApAlwTjB1HCzQ2xLQ8dRvJm3uOZSX9gfDbH+ATGZ5wJDhMcxhtU41QTMQGnGhgPjAWGBI5dqLYD6w3aHFpx1hq0eUSrQ1vkrHWnNYK2DmibCG16m6xw1MR+gkXMw/koBTS2qACkK5j/SYWmAAvAzn5hcNvQ4dxT6mcNlKIzYx86ppIx2Q7GeMSYTMIYN8YBo90YQ/7rMeaMwRiBMcRhuDnDDIZ6/lXVEPILHKvIXzs92HsmdACbyW9XuxXYbrDNYZsb283ZQn4B3WacDWZsSMjfesLGDKx3WB9l2NCeY0PlPmzQorriM3u+j8u0c7rDecDU0Hl2RwUgnQpAigIvAF22AfdHzrKGq3lQi5XKW33so7NDyHR9nUsYmulg2Ft+MHrr4scowZP8e+VvYrDVh/DGwLwjInvHPNvUj7GlyMSxR+vgOIMzME6nAKb5u6MCkE4FIEWRFICdPQN8vaKCO2++3NaGDiMipaUu9klunAF8gUG8jG9vqQCk01arpeNQYEE2y1fqrvH7POHrHfvxw1I/LlREBs7cJT6sYxMnJ3CWw4fhLzNMUvxUAEpPpTufwvhU5Su8Xvtlv9/h3uxE/kdlQET2pP4WH5J7nQ8bzGzfxMeB0ZoqLk0qAN0p/nfUxwFnGJxRuYbXa2O/301lQETebOY9nqlexbEGZySv8VmDMaEzycBTASgf+TLgnFG5hnW1sf+7wT1rp/JTbT0sUn5m3eaVFWv4kMGprOITaGfMsqMCUJ4mALMdZk9YxWu1sT9osDxTyfe0gFCkdNVe52+zDk505xTWcAr5fSmkTKkAyD7ATIeZ2Q6a62L/LXB/LuK+pVfZitDhRGTv1F7j03BOdmcG7XzQ9bwvnfQXQXaWcZgOTI8Srq6NvQX4vhnfrxzF/+pMc5HCVxP7SIMPAicDHyVhMuiab3krFQDpzhSg3p369o1k62L/ncPyCJazDz/Vzm0i4cWxV6yNeFfkzHBnhsHfoO2mpQdUAKSnKrpmBxKYx2tsrYn9MTOWu/Nodj9+oSsLRAbezHs8M/5pjoqcGTgntML7oyR/cqVe5UtvqABIXw03mEH+FQeVa3i9JvaHI+Mn5vxsx348rkIgsvfqb/EhyXreTcKxwN+yivejo6qlH6gASH8ZZ/AJdz7hQOUaOupif8LhUTMeyToP3xrbutAhRQpdTewTMY6JnOkJHJ+8xvGwmzMdRPaSCoAMlMqutwzcOT8D1MW+xuERMx5NnBUT4Jfao1vK2cx7PDPhaQ6zhOMdTiD/b+ZwHHM0pS8DSwVABo3DfsBMd2Ya0ArttbH/EVhhxorEWTFkNCt0tYGUolm3eWXlWg7xhOnWWY5ZxdHA8OLfdFSKkQqAhFRF/gzxqe6cYUD7RrK1sT9LZykwZ2UF/ObG2IrpZEYpc2cv9FFDt/GuyJjuzlRgGmt4DzBEr+qlUKgApNmALqQJo4KdSoED7ZDUxP5c5Dzp8LQZKy3HUxWbefrGGzVbIOFcfLGP2DKMwyJjqhlT3TgcOIJtTMEx10v78NS4UqkASDGIzDnY4WAAd/AI2kfn1xUkzkqDVWasTGBVBp5oiG1j6NBSOmbN8zGZKv7aMkyzfEGdgjNtGxwWQQSdZ4dpwJciogIgRc2d/Sy/tmCGe77sJ0Dt1f4S0ILxHNDiCc+Z09KR4bllsbUFDS0F6bzYJ2RyHOTGFIs4CJjiMCWCv3ZnP0ADvJQUFQApVZOByTjvBzADLH9pQu3VvtGN5wxa6CwHEfzZIl4EXtLsQWm6IPaxHTn2N+NAh7e7McUsP9DjHIQzkqhzxrhzoDc05kvpUgGQcjTanKOBoyFfDpz8WwsAtVf7dmA1xhpgNdBiSf7znNOSybBmPLwSx5aEiS+7mn2Jj4sqmRRl2C8HkyxhP4wpwCQz9nPnoA5nLNFfBvSdB3qRcqQCIPJWQ8m/KpzS9Q3vXEgUWb4otBo76mJ/zZ3XMV4HVuOsMeN1kvzXScQay/G6ZXi9MWYN+Uu7pQfmzvVhHWMY5znGdQ3qUcI4IsZ1TsdPwhiHM478bM9ogKTzbaCdF35pIZ7I7qkAiPSFM6RzX4P9dn4V6Tvt3mIORPnv1V7NdvD1GBtwNmBsANZ3fe4JGyxiA523ScIGdzZ6hh0GW3PtbMskbN93KFsKdfOk+nofkh3B8MxQhuVgaCbHiBxUZTKM8YQxHjEm6rzFGePGGIPR7owzy38PYwwwtt0ZQuefX9eg7rvOx2tgF9krKgAig2MoMBFnIvCWgcy6BrfOGQaznb4HRJX529b8GgYwNgFZnA1AYvlZCHA6Eti8m8ffbMabz2ZwHNvtRVJV7ozY9ZtmjDKocMeAsRgZYDROJTAyIb8c3r3zNvrL11i+EO08iNtO77O/8eehQV1k0KgAiBQjZ1TnZ+PgzdPcqZc9725wTRlwd3sfvsuPa7AWKWpR6AAiIiIy+FQAREREypDeAuiOpjhFRIqbtgJOpRkAERGRMqQCICIiUoZUAERERMqQCoCIiEgZUgEQEREpQyoAIiIiZUgFQEREpAypAIiIiJQhFQAREZEypAIgIiJShlQAREREypDOAuiOzgIQEZESpRkAERGRMqQCICIiUoZUAERERMqQCoCIiEgZUgEQEREpQyoAIiIiZUgFQEREpAypAIiIiJQhFQAREZEypAIgIiJShlQAREREypDOAuiOzgIQEZESpRkAERGRMqQCICIiUoZUAFLsSMiGziAiInvFV64kFzpEoVIBSHHgcLagVQAiIsVsy733mgpAChWAFHFsCbA6dA4REemzF0MHKGQqAN0wWBk6g4iI9JGxKnSEQqYC0I0EHgudQURE+ijhkdARCpkKQDfc+WHoDCIi0jdRwgOhMxQyCx2gsLnVXs4fMaaETiIiIr3y26av2tGhQxQyzQB0yxz4WugUIiLSO2567t4TbQW8B0mOpVGGS4GRobOIiEiPvDZ8O18PHaLQaQZgD5YusNeBW0LnEBGRHnIWLF5sW0LHKHQqAD0QVbIQWBs6h4iI7NGft1TREDpEMVAB6IGG2DYC54bOISIi3UrMOOfO2LaHDlIMVAB6qOla+55rQaCISMFyWNL4VXsodI5ioQLQC8N3MMfhD6FziIjIW6zcWsmVoUMUExWAXli82LZYxBmAppdERArHppzzj5r67x0VgF5q+or9wozPgo6YFBEpAB3mzLz1Ovt96CDFRgWgDxq/av9lUBc6h4hImXPgC43XmbZt7wMVgD5qvNZuNVgQOoeISLky+FLTtfaN0DmKlc4C2CtuNZdxoxlzQicRESkzVzdda9eEDlHMVAD6Qe1lPg/TbICIyCBwNy5q/qrdGDpIsVMB6Cc1l/mZBrej8xVERAZKO/D5puvs30IHKQUqAP2o7nKf6c5dwJDQWURESsxmT/h08wJ7IHSQUqEC0M/qL/Gjk4h/B94ROouISIl4Ngef1qV+/UtXAfSzhgX2OM4xGP8TOouISAn4XkeO92rw73+aARgwbrWX8SXgOlS0RER6Kwtc0XQdi8A8dJhSpAIwwGov9Y9g3AHsGzqLiEiReD5yzmiYbz8NHaSU6ZXpAGuabz+orOIwYFnoLCIiBc+4a1uWd2rwH3iaARhEsy/zj0b5IjApdBYRkUJisCYxzm2+1u4LnaVcaAZgEC29zr6fJByBZgNERHZ2b2UVR2jwH1yaAQik5nI/xZwlwF+HziIiEoSzEmNO03X2YOgo5UgzAIE0X2v3dbQx1eACYGPoPCIig+h14JLqIbxbg384mgEoALMu8/0qIQbOATKB44iIDJQE4+4o4aKG+dYaOky5UwEoIPWX+3uThCXA8aGziIj0sx9ZwkWNC+3J0EEkTwWgANXM8xOiiK86fCB0FhGRvfSoOVc1LrCHQgeRN1MBKGD1l/iMxLgWeG/oLCIivfRo5MQNC2x56CCyeyoARaCzCFwHHBM6i4jIHvzMI+brkr7CpwJQNNxqL+Ukh7kGM0KnERHZSQL8wJwbNdVfPFQAUlx8sY/YWsXBzdfZb0Nn2VXtpX4IUAt8ARgWOI6IlK/twL0RLGiYb6tCh9lV7WX+oeoqHo5jy4bOUohUAFLMvsTHRUYL8A9N8+0XofPsTv2lXp04Z2PUA/uHziMiZeMVM25zp6Fpvr0aOszu1Fzi/2DGf1QPYWwcW3voPIVIBSBFZwF4DdiQRPzD0mvt56Ezpamv9yE+kn9yOBd4X+g8IlKSHOOnnnBr9jW+s2yZdYQOlKb2Uv8I8O/A0OohDFEB2D0VgBQ7FQCAjZ7w0eaF9kjQUD1Qd6kf5saZOGcBE0LnEZGi9wpwT864/dbr7Pehw+xJzaX+GYO7gSoAFYB0KgApdikAADvcOad5gd0dLFQvxLFXrevg7805A+eTQEXoTCJSNBKHhyJnWftrfLeQX+3vrO4yn+P5M1be2OZeBSCdCkCK3RQAADfjmsbr+DKYBwnWB3Pm+YEdxllmnAEcFDqPiBSsp3G+aQnfaFxkq0OH6ak49orWHdxEfnH0m6gApFMBSDH7Eh8X8ZYCAIDDt4fs4Kwbb7Rtg51rb9XO82lmzHT4Z3QSoYjA88D33Lm3GN7m3NXZX/JRwyL+DfjI7n69eqgKQBoVgBTdFQAAg597hn9sutaeH8xc/al2nk8jPytwBjApdB4RGTQvAv+ZH/R5tJhmNHdWc5kfZQnfBg5J+xkVgHQqACn2VAA6bTD4QuMCu3dQQg2QOPZo7Q7+JuOc6vAJVAZEStHzDt8149tN8/l5sQ76XWrm+efMWAoM7+7nVADSqQCk6GEBAHCgoXooXyyVv2SdMwMnA6cAx6G/JyLFKDF4HLg/B/ctXcBvin3Qh/yU//CI2xxO68nPqwCk0xN7il4UgC6/iowzC3E3rL1Rf6lX5xJOsnwh+AdgVOhMIpJqK/CQwX0k3F9MC/l6omaen2ARd+I9X8ysApBOBSBFHwoAQAewpOM1riyWy2Z6Y+5cH7a9ihMzxkccPgQcGjqTiLASeNDh+5ktPNzQYDtCB+pvc+f6sPYhXA1cDGR683tVANKpAKToYwHo8rsIzmpYYI/3a6gCM+cy3zeX8H7PH070YeDtgSOJlDyDNQ6PGCxPMvx387X2YuhMA6lmnh9nxh308QWHCkA6FYAUe1kAAHY4zB+yg0XFeLlgX8y+xKdkYIbDCeRnCLSYUGTvtQI/MVjuzqNNC21l6ECDYe5c36djCF9xOI+dNvbpLRWAdCoAKfqhAHR5yZ3LmxdyVykswOmpOPZobTtHRDmOxzgWOBbtOyDSE88AP3PjMUt4rGkhq8rtuWPdNk43YzFQvbf3pwKQTgUgRT8WAAAMHjZnTsNC+11/3WexmTXPxwwxjnE4IYHjDY5HxxlLedtKfqX+CoNHzPhJw3xrDR0qlLpL/IMONwNH9td9qgCkUwFI0d8FoFMC3J3LcvGti21dP9930Zk1yysr38a7yc8OHINzNPkNPXq1yEekSGSBZxweN+NXluOx8cP5rc6qh/ov+eQk4jrym5L1KxWAdCoAKQaoAHR53Yzr2ofQvCy2rQP0GEUpjr2qdRsHO0w3YzowHXg3mimQ4tIB/AFYYc6KBFZkh/Eb/Xt/s9pL/W0GF7tzATB0IB5DBSCdCkCK2Zf4uMgHrAB0acNY3DGUBj0xpJs1yyuHjGNqzjja4GicI4BpwL6hs4kAqx1WRfCkO4/nKnh8YhVP65V9us79+2twLgHGDuRjVQ9TAUijApBikApAl1aMG6p2cEu5XDHQHy64wMfuGMpB5kwzZyoR03Cmkr8csc+rhkV2x2BNAivNaTFjlRkrO7I8obfzem4wB/4uKgDpVABSDHIB6LIOY4mKwN6piX0k2zkc53AzDuvcNWxK58c+geNJYWsDWoAWN56LnKdzxlMjsjy9eLFtCR2uWNXEPtK2U4szDxg3mI+tApBOBSBFoALQ5WWMhqod3H7jjRYqQ0k6M/ahw7YzyZxpZkwlYYobUyxfDg4EKkJnlAGVBV5waDGnhYgWg5YctAzZznM33WTrQwcsJXVf8kkeUYdzLoHKtwpAOhWAFIELQJftGPdGxoJSO2OgEM2a5ZWVo5hkVUzGmZzAJHMOBPYH9sc5AGMiUBk4quxeO8YaEl5yeCkyVrvzgkW8nDgvU8GLEypZo/fmB179JX50knAexucYoMV9PaUCkE4FIEWBFIAu7vAgcEvzQu4vp01BCk0ce9S2lYkGkxNjP4eJOBMsYjzOeIcJZkzAGQ+MB6pCZy5yO8hPy7cZrHWj1Z02gzaHtZGzFljdXsHLy67jFf3bCKdzA5+PAudbfnvwgqACkE4FIEWBFYCdPWnOze3D+ZauHCh8s+b5mMqIfT1hvEE1zlhgjMMYjNFR/vOx5D/G7PJRKpc+bjXY4LAB2PDG587rXV9jbEzyv/66RbRlsrRtNl65Y5FtCpxd9uCCC3xsRxVnYtSTfyutoKgApFMBSFHABaDLRozvRfDNhgW2PHQY6X+zZnllZh9GWo4hnmF4hTE06wwzZ1jGGJo4I8yoImEkEZUJjLKd1jB4QpXBiF3v12GM7XqVhJHD2fiWEMZmjL+cbOl0mLE5gfYItpCwwyK2urEt52y3hK0escOzbLYKOvYdyiZNuZem2Zf49Oj/t3f/QVZW9x3H39/n3t3lh7CL7oqsIOlaEwQdRTp1CE0bCO1Mp2jGjNtMa7Wa2k3YyyKrAknbJHeSZpI0KOiygNtOajPTdCpak4htk1hoVeKMLUKaCBjrThRwhEVxERaWe+/z7R8XEAwsLOxy7r3P5zWzs/zY2f3Awj2f5zznOSemBeM2TvHvrFSoAJyeCsBplEEBONE2jH8o5Pl7PZIkIsOl5S98QlXMHTh3UyZne6gAnJ5WPFeGq3G+kUrxlczn/UcG36kfwZO68hKR89Xc7KnLrmR27LRQ4BY0blQMfSMrSzXOPId5PYfYmVnqjxHxWOfXeVGLo0TkbGWzHu0+yMdSKf7QnVtj59LQmWToqQBUronAvcTcm1nCDiJ/0p21q77JRpUBETmV+Z/3GRHc0XOIW6OIRtcrRUVTARhI5fzjn0TMQoOFmSW8Dv59N5UBEYHMUp9mTrPD7cSlt4pfho8KQPJMBhaas7B1Ca8a/r3YeXr8aDZqzYBI5ctmvbqnj98B5gGfxJmsq4BkUgFIMIOrgMWRsbinj4OZJb7B4KnY+cGqb9lbofOJyNBouc/rqyNmu3FTTx83U9xnQhJOBUCOGQ3FBYRmrF6wxDcD6woRT63+Bi/pVoFIecks9Wk484CbgJmuEzLlA1QA5FQihxnAjCjmy0fXDfzYjA1xzHrNDoiUnrYlPrHgzDFjDvC7OI2hM0lpUwGQszEZuNudu80gs8S7gWfMecbTrO/8ur0dOqBI0rTc5/XpNDPNmWUwN4YbzLS5m5w9FQA5F01AixstFIgzS3yLO+ujiPXxSJ5blbUDoQOKVJqWpV6bht82Zw4wB7gWLw74uj8n50IFQM5XRPHK4wZ37rc+Cpml/grOJoPn3djY+U22ag2ByOAsWOKNOLPc+C2DWe5MR/fxZQipAMhQS+FMBaY63I5DZgm7wf/bYJPFPJ8usHH5cjsUOqhIqWjJ+qj0IW6IYmZ4xCycjzs0HJvQV3uW4aACIBfCeI4+YeARHInIZZb6S8CLHvNSKmJz/z62dnVZ7kyfSKTcZbNe3XOQa8yY7s50jBvp43og7YZGe7lgVAAkhCqcG4EbzSB2qKojl1nqr+JsMmdTHLFpVIHNy5bZwdBhRc5Va9Yv8sN8xApMMys+WdPTxwyMEQ46j1WCUgGQUlF1/NaBcbs5HIqOryfYbMaWOObnFrOt8wHe0JoCKSXZrEd7DzDZjast4pqj9+un08dVBpEGeilFKgAD0RAT2vvrCZzbDCCCzGL6wV8DXjZjK87LHrF1Tzfb1661QtjIUsmyWU/vPswV6TxNbkxzmApM6znAdRgXAXgcOKTIWVIBkHJUA8eLQVEMl36Iw5nFvh1jO842N16zmO4CvLZmme0JmFfKTOtiv4yIJnOuxPl1jCk4U3oOMiWC6viDV/S6wpcypAIglWQEcD3O9XD0JoFBCsgs9n5gl0O3QTdGtzndhZjuETFb9VRCsrS0eFXqYial8zR5RJPHNGE0mdHkzlXAWE68ktdsoFQgFQBJihqgyTh63KkXX9Oj4lMJ+cxi3wXsdNhpxi5idnjETow3U84bl4ziLZ2WWB5aWrxq5DgmFGImuXO5G5ebcQXQSMxEjElAIwVS8bFV98cet9NALwmiAiBS/H8wGZh8fFs1OzqD4BADPQcpZBb7bmCHObs8YqfH7I0iejxmt6foifLs9Wp6tDXy8Gj7gjcUCtSnnPqC0QBcZk49UO8wyeByMya6Mz4fH90wxzh5qzxN1YscpwIgcnZSQCPQeOxZbbOjV4wGFoNHQB4yiz1vRo87e4E9Bnvc6DHojaHXnF4rvt9X8OLP0yPo7a2m99GsHQ75hxxu7e0+sj9NrRu1aaiNodacutipi4xaLx5TW4vRgDPeoMGhHmiI86SMYiH74DMgx8Z1XcGLnD0VAJGhl3ZnAjABjl58+kkzzTjgViwRAPkcjM4dX6uwH6fXInrdOeJw0OAwcAinD6Mf4wAxOYz9GAWPeTeKcGIKGPt/JVHMATNO2mjJIU8x00mvA7FRbcXjofnAx9eaEVE8LbLWYtIOY8yodhhtMMJhpBm4vOlDAAAJ+UlEQVSjYqcmgoswqtypoziwjz0C1UZxAI/f/7zFMvWBL3bCOxEZBioAIqWlhuIWsA3HrmZPmrU+sUGc8OMTZyNOKTr9YHqqXz/tx57wG/6BbWr9hI85vqGdRnCRkqWDJURERBJIBUBERCSBVABEREQSSGsABqL7lyIiUqE0AyAiIpJAKgAiIiIJpAIgIiKSQCoAIiIiCaQCICIikkAqACIiIgmkAiAiIpJAKgAiIiIJpAIgIiKSQCoAIiIiCaQCICIikkA6C2AgOgtAREQqlGYAREREEkgFQEREJIFUAERERBJIBUBERCSBVABEREQSSAVAREQkgVQAREREEkgFQEREJIFUAERERBJIBUBERCSBVABEREQSSGcBDERnAYiISIXSDICIiEgCqQCcRs1hXf+LiJS7N9/Ua/npqACcRl0dfaEziIjIeenv6rJc6BClSgXgNLJZOwK8FzqHiIics7dDByhlKgADeyV0ABEROUfO9tARSpkKwMA2hQ4gIiLnKNJr+EBUAAbirA8dQUREzo3Heg0fiArAAA5V8W+gxYAiImVoXyrPhtAhSpkKwAC+/Tf2HvC90DlERGRw3Pjnjg7rD52jlKkAnIE5y0NnEBGRQXEKPBw6RKmz0AHKQWu7/9hgbugcIiJyVp7oXG63hg5R6jQDcBZSxv1AHDqHiIicUS5V4AuhQ5QDFYCz0PGg/RTnkdA5RETkDJxlDz9sr4aOUQ5UAM5Sro/70cZAIiIly2FzQx3Z0DnKhdYADML8+3xGFPMCUBU6i4iInOSwwW+uXG4/Cx2kXGgGYBBWP2Cb3Plq6BwiInIyc5Zo8B8czQAMmltrO98x+JPQSUREBDD+rvNB+/PQMcqNZgAGzfzSWv7M4ZnQSUREks7g6YaxzA+doxxpBuActbX52DjNs8B1obOIiCTUiyNTzFm2zA6GDlKOVADOQ1ubT4zT/BfQFDqLiEjC/IwjzO7stLdDBylXugVwHjo6bKenmQVsCZ1FRCRBXsxFzNHgf35UAM7Tqm/ZW1XObIfnQmcREUmA//B+PtH1gO0NHaTc6RbAEGlr8xpP8V2HT4XOIiJSkZzv5g5xZ1eX5UJHqQSaARgiHR3WX1/Hp4GO0FlERCqMY/x1wzhu1+A/dDQDMAxaF/kfGfwtMDp0FhGRMrff4a5VK+xfQgepNCoAw2TBfT7FY57AmRo6i4hImdoSFbi1o8NeCx2kEukWwDBZ+YBtj/LMxHkydBYRkTL0aLXxUQ3+w0czABfAgnu82Y01wMWhs4iIlLgeh9ZVK+zx0EEqnQrABdKyyCdUwRrg5tBZRERKkrHOcnx25Up7M3SUJFABuMAW3OPNHvEIzrjQWURESsS7Zixdudy6QgdJEhWAAFrv9UnmrMKZFzqLiEhgj6WdhQ89ZLtDB0kaFYCAMgv9ExaxwuGa0FlERC6wLTj3dD5kz4YOklQqAIG1tHhV9WjucudrQH3oPCIiw+wdM76yeycr1661QugwSaYCUCLa2/3iI/BlnAyQCp1HRGSI5YFv51L8pfbxLw0qACVmQbtfS0zW4Rb0/RGR8ldw+CdL8dXOB+0XocPI+zTAlKjPLfRrUsaXgFvR90lEyk8MPGEFvrRypW0PHUZ+lQaWEreg3a/1mC+iIiAi5cGBp9344qoVtiV0GDk9DShlYkG7/4Y7f4VzE9rCWURKTx54vOB8bc3D9vPQYeTMVADKzPx2b4piWoDPAnWh84hI4u0HHiXPg52d9nroMHL2VADKVFubj3XjLo9ox5kcOo+IJE430FVlPLJihb0bOowMngpAmctmPd3zDp/CWATMDJ1HRCreBoMV9eNYl81aHDqMnDsVgArSusivNudPgc8ADaHziEjF2IexNnY6Vz9k/xs6jAwNFYAK1NbmNR5xs8MdwO+jjYVEZPBid9ZHRlf9OL6fzdqR0IFkaKkAVLi2Np8YR9wGfA74UOA4IlL6dgL/WDDWrFlhvwwdRoaPCkBCNDd76rKJzI4LfBrjFuCS0JlEpGTsMXi8EPPY+Et4Tvf2k0EFIIGamz3V0MhMg2acP0aHEIkk0T5gnTtr8/38e1eX5UIHkgtLBSDh2tq8pgC/Z0Yz8ElgbOhMIjJMjF6cH7iz9tJL+KHu6yebCoAc197uI/vzzDVjHjAPaAydSUTO2+sGT8fwVMrZ0NFh/aEDSWlQAZDTyrT7NPLMI+ImnJloC2KRchAbbAbWFeCp1Q/zEpiHDiWlRwVAzkrLIp+QduaZ8wfAXGB06Ewictx7wI/cWRfn+Nc1a2xP6EBS+lQAZNCyWU/vfofrImeuG3MNPgbUhM4lkiB5g5+68UwU8wzwnKb2ZbBUAOS8tbT4qJoaPhpHzDVnrsN0dLtAZCgVDLa4sdHgeYv5YUeH7Q8dSsqbCoAMuUzGL/GI2WZ8HJgFXIt2IxQZjDzGFuAnZmxIw3/qwB0ZaioAMuzuv99H9+WYHjkzvFgIZqO9B0ROtN/hxQg2xs6mfD/PdnVZb+hQUtlUACQAt9ZFTLECMzFmUTzF8CPotoEkQ2ywFeeFGH7iES+sfsheCR1KkkcFQErCZ5b4mBH9XBc5U92YBszAmQGMCJ1N5DzkgV8Amww2xcYmcmxZtcoOhA4mogIgJaulxauqRvNhj5lhMINiKbgePYIopemAwSsOW48N9n29/M+jj9rh0MFETkUFQMpKc7OnGhr4tShiqhtXG0x1mApMAS4KnU8SYT+wHeNlnG3EbIur2Tq+ll/qEB0pJyoAUjEyGZ9sxhSPmGbOlBOKgU4+lHPRg7MNY5s529zZGkVs6+iwnaGDiQwFFQCpeHfe6SNGjqMxnafJjSZ3mjCacKYBHwbSoTNKEDmcHW50m9PN0feFiO7CYf5Pq/Cl0qkASKJls57e3csV0RGu9IgmnEmRMclhIsXDkK4ARgWOKefmwNEBfpc5uyzijdjZYUZ3IeK1t3exY+1aK4QOKRKKCoDIGSxa5HW5HJebcQXQGMNEMybiNGJcBjRQ3NdgZNikidEH7AX2GOx2ZxfFQX4H8KY7O6OIHdopT2RgKgAiQ6S11S+KIho8xaXkafCIeiuWg/E49WbUO9QZ1DrUUnwbGzh2aL0nvRnv4uwFehx2m7E3dvamoSeO2T1yJHuXLbODYSOLVAYVAJGg3ObPpy6Voi5OU2vOWI+pjZzaGMaaMcadajNGAzU4ozBGYowwZ1QMNQajDaodxuAnrGcw0sCYU3zRMfzquocccKpn0/fjvD9NbuQMDjj0O/SZcRg4REwf0G8RB905cvRz5SjucLffYnqjiF5gfy5Fr/XTu3q17TuPvzgRERERERERERERERERERERERERERERERERERERERERERERERERERERERERERERERERERERERERERERERERERERkSH3/5BKq+2/rCl7AAAAAElFTkSuQmCC;" vertex="1" parent="1">
          <mxGeometry x="799" y="519.5" width="40" height="40" as="geometry" />
        </mxCell>
        <mxCell id="5pLzxD6deojl3qA_GsYt-66" value="" style="endArrow=classic;html=1;rounded=0;entryX=0.995;entryY=0.446;entryDx=0;entryDy=0;entryPerimeter=0;exitX=0;exitY=0.653;exitDx=0;exitDy=0;exitPerimeter=0;strokeColor=#3399FF;" edge="1" parent="1">
          <mxGeometry width="50" height="50" relative="1" as="geometry">
            <mxPoint x="312" y="501.06500000000005" as="sourcePoint" />
            <mxPoint x="241.55" y="557.64" as="targetPoint" />
          </mxGeometry>
        </mxCell>
        <mxCell id="5pLzxD6deojl3qA_GsYt-67" value="" style="shape=image;verticalLabelPosition=bottom;labelBackgroundColor=default;verticalAlign=top;aspect=fixed;imageAspect=0;image=https://static-00.iconduck.com/assets.00/sqlite-icon-2048x909-7nkrc3bm.png;" vertex="1" parent="1">
          <mxGeometry x="764" y="545" width="69" height="30.65" as="geometry" />
        </mxCell>
      </root>
    </mxGraphModel>
  </diagram>
</mxfile>
